<svg version="1.1" id="Layer_1" xmlns="http://www.w3.org/2000/svg" xmlns:xlink="http://www.w3.org/1999/xlink" x="0px" y="0px"
	 width="100%" viewBox="0 0 1000 1000" enable-background="new 0 0 1000 1000" xml:space="preserve">
<path fill="#000000" opacity="1.000000" stroke="none" 
	d="
M639.000000,1001.000000 
	C427.500000,1001.000000 216.500000,1000.988403 5.500047,1001.093567 
	C1.750771,1001.095459 0.905755,1000.249084 0.906896,996.500000 
	C1.007416,666.166687 1.007416,335.833344 0.906896,5.500028 
	C0.905755,1.750898 1.750897,0.905753 5.500028,0.906894 
	C335.833344,1.007430 666.166687,1.007430 996.500000,0.906894 
	C1000.249084,0.905753 1001.094238,1.750897 1001.093140,5.500028 
	C1000.992615,335.833344 1000.992615,666.166687 1001.093140,996.500000 
	C1001.094299,1000.249084 1000.249512,1001.098022 996.499939,1001.094421 
	C877.500000,1000.979492 758.500000,1001.000000 639.000000,1001.000000 
z"/>
<path fill="#5A4A3B" opacity="1.000000" stroke="none" 
	d="
M348.455688,286.326050 
	C365.162476,284.476471 381.438141,282.697571 397.733246,281.119507 
	C403.501770,280.560852 409.324188,280.500916 415.109955,280.182648 
	C450.866150,278.215668 486.681000,278.647217 522.455750,279.268890 
	C536.296753,279.509430 550.290833,279.738678 564.082886,281.927826 
	C568.476746,282.625244 571.357300,281.840942 572.500916,276.389832 
	C575.587524,261.676361 579.397522,247.114075 582.958496,232.501038 
	C584.448486,226.386429 587.515625,224.320480 593.806885,225.042419 
	C598.648743,225.598038 601.217102,228.762878 600.941772,234.622879 
	C600.613953,241.598572 598.458801,248.282074 596.736877,254.985336 
	C595.641296,259.250916 595.931702,260.977631 600.933777,261.147827 
	C607.188232,261.360657 613.456970,262.298553 619.623535,263.441589 
	C622.530334,263.980377 623.493958,263.299072 624.077087,260.594818 
	C625.537842,253.820084 626.954285,247.014328 628.904724,240.372589 
	C630.906738,233.555237 638.281982,231.025314 643.452209,235.045746 
	C647.444702,238.150482 647.555420,242.396912 646.573181,246.831421 
	C643.642822,260.061401 640.817078,273.318115 637.598267,286.478271 
	C636.716919,290.081421 637.825378,291.259857 641.013672,292.032013 
	C651.302551,294.523804 661.639099,296.827179 671.093323,301.969818 
	C676.406494,304.859955 679.337524,308.544006 679.138245,314.986053 
	C678.968567,320.471252 678.403992,325.898041 677.966125,331.344299 
	C677.734192,334.229248 678.861389,335.073700 681.648499,335.040863 
	C691.812256,334.921051 701.978333,334.972748 712.143311,335.011200 
	C719.743408,335.039948 722.729980,338.330719 723.040710,346.023834 
	C723.722961,362.917267 720.912842,379.180969 713.221741,394.202179 
	C703.042297,414.083130 686.924316,427.031281 665.234619,433.029663 
	C655.069092,435.841003 644.645569,436.062103 634.281982,436.928314 
	C631.601562,437.152405 630.000305,437.967133 628.145386,440.089172 
	C612.888733,457.542999 595.309326,472.134949 575.028931,483.601379 
	C552.625305,496.268280 528.619873,503.770111 503.260040,506.797363 
	C486.274170,508.825043 469.229767,508.415039 452.144257,506.206604 
	C429.049957,503.221497 407.178192,496.574280 386.520416,486.104889 
	C371.883667,478.686951 358.427063,469.436554 345.924622,458.628357 
	C325.787750,441.220367 310.175812,420.472992 298.470795,396.773743 
	C289.328979,378.264191 283.477478,358.649841 280.919342,338.094177 
	C279.998840,330.697296 279.221130,323.312622 278.923279,315.851624 
	C278.647705,308.948608 281.792175,304.685394 287.671692,301.653625 
	C298.250153,296.198853 309.721863,293.605988 321.181030,291.105011 
	C330.045929,289.170227 339.075745,287.990967 348.455688,286.326050 
z"/>
<path fill="#5A4A3B" opacity="1.000000" stroke="none" 
	d="
M249.996674,590.845703 
	C249.996765,588.871277 249.996918,587.372375 249.996796,585.873413 
	C249.996140,577.734741 250.024551,577.661377 242.547485,574.762878 
	C238.744278,573.288452 237.038773,570.381165 237.183853,566.671021 
	C237.333313,562.848206 239.386673,560.510132 243.614532,559.805176 
	C247.112961,559.221741 250.369247,558.786133 253.887604,559.713745 
	C255.897141,560.243591 258.322418,560.255371 260.296021,559.645142 
	C264.592407,558.316589 268.507782,559.320068 272.386108,560.817566 
	C277.242981,562.692993 278.956390,565.834595 277.904266,571.022278 
	C277.024597,575.359619 273.567780,576.243713 269.885193,575.936340 
	C265.190765,575.544434 263.877472,577.517151 263.922607,582.015625 
	C264.113190,601.000427 264.075531,619.988770 263.947357,638.974609 
	C263.920532,642.948730 264.654480,645.063782 269.356628,645.150757 
	C275.561188,645.265198 278.342224,648.636597 277.980194,654.186340 
	C277.638062,659.431091 274.616119,661.859131 268.662323,662.024414 
	C262.040558,662.208130 255.405167,661.436279 248.788879,662.861755 
	C245.392822,663.593506 242.101669,662.007446 239.744202,659.629578 
	C237.652756,657.520020 236.211548,654.666138 237.364853,651.447083 
	C238.527176,648.202881 240.872437,646.088867 244.405060,646.071167 
	C248.846848,646.048950 250.121643,643.737610 250.030518,639.721924 
	C249.886963,633.396240 249.853165,627.061096 250.035553,620.737488 
	C250.148560,616.820068 248.074631,615.246765 244.665207,615.083984 
	C239.371002,614.831299 234.093750,614.860718 228.792221,614.148132 
	C223.740250,613.469116 222.063217,615.350891 222.020935,620.251099 
	C221.962036,627.079163 222.100494,633.909912 221.966812,640.735840 
	C221.901047,644.093262 222.702591,645.847046 226.595184,646.141785 
	C232.442596,646.584656 234.347641,649.299377 233.979874,655.102966 
	C233.702255,659.484253 231.117340,661.823669 225.890945,661.950378 
	C218.594315,662.127380 211.372086,663.544312 204.029587,663.040588 
	C200.561234,662.802612 197.387772,662.218201 195.553452,658.945496 
	C193.497437,655.277100 194.380066,651.644653 196.018982,648.062195 
	C197.107651,645.682556 199.216751,646.071045 201.171158,646.010498 
	C207.972260,645.799561 207.990570,645.806213 207.996841,638.927490 
	C208.008972,625.603516 208.123901,612.277771 207.939636,598.956299 
	C207.858887,593.120178 209.315689,587.447021 209.106232,581.587952 
	C208.965408,577.648438 207.972672,575.867004 203.692764,575.919739 
	C196.464737,576.008850 192.982620,571.096130 195.224884,564.136780 
	C196.166809,561.213379 198.162979,558.985291 201.759674,559.006592 
	C209.920197,559.054993 218.083878,558.897156 226.241028,559.070374 
	C230.991257,559.171204 233.739655,562.242798 233.982758,567.055298 
	C234.266068,572.663330 232.408646,575.445435 226.936295,575.827881 
	C222.895508,576.110352 221.812759,577.754028 221.958359,581.423706 
	C222.156281,586.412537 222.080139,591.415527 222.003510,596.410645 
	C221.964874,598.929749 222.973709,599.925232 225.534027,600.016418 
	C231.986389,600.246094 238.449341,599.474854 244.911591,600.770325 
	C247.649673,601.319153 249.508911,599.153320 249.878082,596.310913 
	C250.091187,594.670227 249.968277,592.985840 249.996674,590.845703 
z"/>
<path fill="#5A4A3B" opacity="1.000000" stroke="none" 
	d="
M405.114868,658.306396 
	C388.940002,668.968567 369.712219,657.399963 363.480072,641.665588 
	C357.887238,627.545349 360.117371,613.176575 366.773590,600.266418 
	C374.626587,585.034973 388.327667,582.048706 403.919281,590.433167 
	C405.875671,591.485168 406.662415,591.185913 406.915894,589.111084 
	C407.016357,588.288391 407.003845,587.447388 406.988434,586.615784 
	C406.926880,583.289612 407.726807,579.598755 406.541534,576.731812 
	C405.115326,573.281982 400.621643,575.333618 397.657043,574.044434 
	C394.378418,572.618652 390.997253,571.725769 391.015167,567.197876 
	C391.030121,563.422729 392.662689,561.130188 396.577606,561.057983 
	C401.906036,560.959595 407.245483,560.856567 412.565613,561.088745 
	C417.243500,561.292908 419.924622,564.428528 419.985352,569.225342 
	C420.033813,573.056030 420.210999,576.901550 419.964355,580.716797 
	C418.631989,601.326538 423.152924,621.733643 422.012787,642.327271 
	C421.851898,645.233582 423.281067,646.086548 425.940582,646.020142 
	C428.239746,645.962769 430.494690,646.113831 432.815735,646.750427 
	C436.640228,647.799377 438.301361,649.692688 438.070740,653.797668 
	C437.838715,657.927612 435.300507,660.185730 432.029663,660.679382 
	C424.271515,661.850220 416.221375,663.319214 409.549042,657.098938 
	C407.655914,655.334045 406.617615,657.075562 405.114868,658.306396 
z"/>
<path fill="#5A4A3B" opacity="1.000000" stroke="none" 
	d="
M639.369141,627.304321 
	C636.241882,645.561035 625.080566,656.321655 608.789307,662.478271 
	C606.868103,663.204285 604.333801,663.459229 602.419189,662.860291 
	C591.954163,659.586548 581.649719,656.007690 575.778076,645.495911 
	C561.475281,619.890137 564.121094,594.813171 578.834473,570.650330 
	C588.421021,554.906921 606.636414,552.523193 621.371887,563.794678 
	C634.718506,574.003723 640.106873,588.029663 640.911682,604.142334 
	C641.290771,611.732422 641.662781,619.428711 639.369141,627.304321 
z"/>
<path fill="#5A4A3B" opacity="1.000000" stroke="none" 
	d="
M663.344116,588.005066 
	C666.469116,588.002197 669.132751,587.996216 671.796448,588.001892 
	C678.545471,588.016296 680.357239,589.801758 681.002747,596.633118 
	C681.353333,600.343750 680.006897,603.880005 680.070251,607.495667 
	C680.247559,617.612122 680.502258,627.736572 681.158142,637.829895 
	C681.374268,641.155762 682.094788,644.883240 685.995117,646.430603 
	C690.108215,648.062500 693.787476,646.474792 696.502625,643.791321 
	C703.794434,636.584473 710.198364,628.768250 709.025940,617.426697 
	C708.821655,615.450073 708.813416,613.413879 709.031128,611.440186 
	C709.713989,605.249878 709.222168,600.068298 701.348267,599.002747 
	C698.474976,598.613892 696.890503,596.296387 697.052246,593.172302 
	C697.222900,589.877625 699.064514,587.998474 702.194763,587.445007 
	C707.142639,586.570007 712.229248,586.450195 717.082581,587.346252 
	C722.770996,588.396484 722.879761,593.588989 722.934204,598.032288 
	C723.101196,611.681641 723.132019,625.336182 722.929260,638.984497 
	C722.861572,643.542175 723.071472,646.425110 729.073181,646.246643 
	C734.612305,646.081848 737.194580,649.679688 736.979919,654.941101 
	C736.808350,659.145874 733.575989,661.924683 728.418274,661.950745 
	C724.947815,661.968262 721.483398,662.218872 717.987732,661.552734 
	C712.987061,660.599792 709.307251,658.471069 708.605469,652.870789 
	C705.817444,653.832520 704.643738,656.260498 702.653442,657.696167 
	C687.201660,668.842102 669.958130,661.523254 665.994568,642.377014 
	C664.268677,634.040039 665.295898,625.877563 666.362488,617.693359 
	C666.662964,615.388245 666.778137,613.092041 667.027222,610.796936 
	C667.637329,605.175903 666.926392,600.800415 659.891235,599.942993 
	C656.140625,599.485840 655.788940,595.998230 656.104065,592.892273 
	C656.511780,588.873474 659.344788,587.866882 663.344116,588.005066 
z"/>
<path fill="#5A4A3B" opacity="1.000000" stroke="none" 
	d="
M471.901093,647.420410 
	C480.121796,650.852722 488.616516,648.534912 493.817200,641.738525 
	C494.619598,640.690002 495.387909,639.615356 496.184387,638.562195 
	C498.665741,635.281250 504.066437,633.609070 506.817841,635.640198 
	C510.278656,638.194946 509.560760,641.958191 508.246429,645.173218 
	C504.773468,653.668091 498.445068,659.252869 489.549835,661.650635 
	C469.643433,667.016663 452.660034,657.451782 448.842590,637.089539 
	C446.017609,622.021118 447.102661,606.989990 459.366425,595.039124 
	C469.577209,585.088806 488.975281,586.122375 498.293732,595.451294 
	C505.139221,602.304565 509.524200,609.666382 509.954956,619.240845 
	C510.254333,625.895142 508.363373,627.859131 501.586670,627.949646 
	C490.927643,628.091980 480.265320,627.968750 469.604584,628.008606 
	C459.642151,628.045898 459.938660,630.027161 463.208374,638.276367 
	C464.770599,642.217712 467.960358,644.999573 471.901093,647.420410 
z"/>
<path fill="#5A4A3B" opacity="1.000000" stroke="none" 
	d="
M792.225220,600.955811 
	C773.316528,596.705811 777.292053,598.607361 777.025574,612.314880 
	C776.883179,619.638977 776.999084,626.968140 777.002991,634.294983 
	C777.003601,635.460449 776.931091,636.636719 777.058838,637.789490 
	C777.513184,641.887817 780.000183,644.832825 783.735046,645.584900 
	C787.404663,646.323914 789.893982,643.439148 791.217957,640.240234 
	C792.790894,636.440063 793.934143,632.458923 795.200012,628.535706 
	C796.309753,625.096558 798.940918,624.891541 801.962280,624.972290 
	C804.955444,625.052307 806.277649,626.515991 807.208313,629.246582 
	C812.271545,644.102112 798.928223,663.044922 783.514526,661.810059 
	C774.481079,661.086365 763.081299,651.890015 761.756348,640.454163 
	C760.397217,628.723755 762.097168,617.380737 762.908875,605.861877 
	C763.388916,599.050537 762.985352,599.019714 756.254333,599.000366 
	C753.256958,598.991760 750.258972,599.033875 747.262390,598.984192 
	C742.050110,598.897705 738.767578,593.763550 741.570984,589.363586 
	C743.764709,585.920532 746.710449,582.693665 751.594299,582.997559 
	C752.754883,583.069824 753.928162,583.046326 755.089783,582.973694 
	C761.473999,582.574402 763.902100,579.984009 763.997925,573.525208 
	C764.049500,570.053894 763.834717,566.606567 765.026123,563.188843 
	C766.452454,559.097351 769.555725,558.937012 773.038513,558.996399 
	C776.349365,559.052856 777.229065,560.988953 778.249023,563.839905 
	C780.189270,569.263306 777.532898,574.329773 777.846558,579.612671 
	C778.082397,583.584900 778.955811,585.493896 783.222290,585.043213 
	C785.858765,584.764587 788.560974,585.137329 791.205872,584.903564 
	C798.271362,584.279175 802.164734,586.805969 802.670288,592.563538 
	C803.159302,598.133362 799.768127,600.984375 792.225220,600.955811 
z"/>
<path fill="#5A4A3B" opacity="1.000000" stroke="none" 
	d="
M296.906616,646.226929 
	C301.815430,646.075623 306.311676,645.955566 310.806244,646.001343 
	C313.764587,646.031494 314.853851,644.708069 315.026581,641.788452 
	C315.683960,630.677246 316.073456,619.570190 316.116791,608.433960 
	C316.134613,603.856689 314.514374,602.579346 310.306763,602.947449 
	C307.166626,603.222351 303.976501,602.869507 300.819458,603.021362 
	C296.312836,603.238220 294.613586,600.601868 294.050995,596.722168 
	C293.424591,592.402283 294.619629,589.140869 299.360748,588.115662 
	C300.650635,587.836670 301.959320,587.416931 303.255249,587.431335 
	C310.100494,587.507263 316.964355,587.435974 323.781860,587.947449 
	C328.358643,588.290771 330.053741,591.519592 330.028137,595.999146 
	C329.942444,610.988464 330.118011,625.980103 329.928467,640.967468 
	C329.878326,644.935059 331.211609,646.397156 335.093994,646.039429 
	C337.570953,645.811218 340.087036,645.974243 342.584808,646.011658 
	C348.966461,646.107300 352.819672,652.262268 350.353668,658.199524 
	C349.049530,661.339417 346.744537,662.061646 343.598938,662.039856 
	C329.276001,661.940491 314.951599,661.944153 300.628601,662.039673 
	C297.312653,662.061768 293.818726,662.058167 292.550354,658.595337 
	C291.210297,654.936829 291.460083,651.017212 294.603760,647.954285 
	C295.197723,647.375549 295.861694,646.868652 296.906616,646.226929 
z"/>
<path fill="#5A4A3B" opacity="1.000000" stroke="none" 
	d="
M457.654785,743.259277 
	C463.430817,742.417236 468.820953,741.671631 474.219849,740.995911 
	C476.232635,740.744080 478.305634,740.647278 478.863098,738.156982 
	C479.466431,735.461975 477.779449,734.151550 475.613464,733.326843 
	C473.771393,732.625366 471.842743,732.154846 469.979340,731.505127 
	C467.255859,730.555420 465.858490,731.335938 464.745148,734.186340 
	C462.692047,739.442871 459.066193,741.479309 454.903046,740.423035 
	C451.944672,739.672363 448.867523,738.736511 448.299561,735.248535 
	C447.587555,730.876160 449.169739,727.021301 452.470947,724.120178 
	C458.273682,719.020752 465.345154,717.816956 472.524261,719.432312 
	C487.264130,722.748901 493.146423,732.648743 490.444702,747.491699 
	C489.622467,752.009155 490.105865,756.768127 490.045197,761.417175 
	C490.032867,762.361145 489.928040,763.741821 491.240234,763.732605 
	C492.212280,763.725708 492.830841,762.669983 492.946136,761.563232 
	C493.014801,760.904297 493.029663,760.205505 493.269775,759.605042 
	C494.107422,757.510437 495.167542,755.729370 497.948334,756.043579 
	C500.585785,756.341614 502.228210,757.679626 502.858124,760.215820 
	C504.224823,765.718872 501.916199,772.697571 497.844025,775.506836 
	C493.891022,778.233887 488.049500,777.605225 482.898834,773.318237 
	C479.687378,770.645203 478.031433,773.557495 475.981049,774.682251 
	C469.093201,778.460876 461.886383,778.192322 455.069824,775.447815 
	C447.993530,772.598755 446.368439,765.706665 446.329834,758.923645 
	C446.287384,751.474060 450.176056,746.137329 457.654785,743.259277 
z"/>
<path fill="#5A4A3B" opacity="1.000000" stroke="none" 
	d="
M393.705872,767.114258 
	C388.388916,757.269226 387.320801,746.983093 388.012115,736.398071 
	C388.592987,727.504150 391.086823,719.102661 395.797455,711.584229 
	C401.717072,702.136230 411.177521,699.482849 421.215942,704.186218 
	C423.893829,705.440918 425.645111,705.707092 428.218719,703.620422 
	C432.198578,700.393677 436.569244,702.549194 436.850525,707.888916 
	C437.225189,715.001282 436.982574,722.149658 436.872925,729.280579 
	C436.853302,730.556580 436.384369,731.922791 435.785065,733.070984 
	C434.780304,734.995972 433.503326,736.886963 430.989014,736.873596 
	C428.483643,736.860291 426.981506,735.038940 426.235992,733.039551 
	C425.205719,730.276489 424.566742,727.331543 424.074524,724.411499 
	C423.125458,718.781250 419.167328,716.327820 414.269501,715.130005 
	C409.602264,713.988525 407.203674,717.117126 404.646729,720.506836 
	C398.030701,729.277588 399.948120,739.156372 400.518646,748.826477 
	C400.698730,751.878784 401.468109,755.011292 402.944153,757.869690 
	C405.078949,762.003662 407.592804,765.546387 412.769440,765.987793 
	C418.289856,766.458740 421.358643,762.848145 423.887695,758.911987 
	C425.462585,756.460815 426.189636,753.447937 427.187744,750.648132 
	C428.157990,747.926514 429.895477,746.923157 432.850464,746.923401 
	C435.931793,746.923706 436.752655,748.645447 437.534180,751.017578 
	C438.726074,754.635437 437.459808,757.963928 436.326508,761.181885 
	C433.089722,770.372742 427.057190,777.604797 417.197113,778.654053 
	C407.820068,779.651917 399.140869,776.417725 393.705872,767.114258 
z"/>
<path fill="#5A4A3B" opacity="1.000000" stroke="none" 
	d="
M515.962524,732.418579 
	C512.526184,730.844421 511.554901,728.207703 512.219788,725.250977 
	C512.977600,721.880737 516.126648,721.032715 519.005493,720.178162 
	C521.484497,719.442200 525.021729,721.298523 526.411255,718.766052 
	C527.559570,716.673157 526.855469,713.577454 527.021484,710.929260 
	C527.412903,704.687073 531.076294,700.414734 536.630127,698.941040 
	C546.961426,696.199707 559.826050,697.743286 564.140686,708.360046 
	C566.127686,713.249207 564.553406,718.649597 560.343506,720.829773 
	C555.865234,723.148987 551.722351,721.448059 550.101074,716.593384 
	C549.841125,715.814880 549.712708,714.987305 549.575562,714.173706 
	C548.944946,710.430115 547.631104,707.757507 543.027466,709.524963 
	C538.685974,711.191772 536.286072,715.844543 538.307556,719.506348 
	C539.684814,722.001160 542.746521,721.586304 544.956665,721.793335 
	C548.981262,722.170288 551.167480,723.420715 551.018188,727.803406 
	C550.860779,732.423584 547.837952,734.143188 544.128357,733.844971 
	C538.723145,733.410400 537.657776,735.731567 537.921387,740.476624 
	C538.262451,746.616333 538.205383,752.797913 537.936951,758.944702 
	C537.765320,762.873901 539.129578,764.465820 543.050842,764.017456 
	C546.234436,763.653442 548.900635,764.269287 550.331360,767.742126 
	C552.661499,773.398193 550.555847,776.944336 544.504211,776.981873 
	C535.849182,777.035645 527.193420,777.029663 518.538330,776.983398 
	C513.011292,776.953796 511.920471,775.841980 512.012634,770.665283 
	C512.088623,766.398865 514.648254,763.945129 518.913635,764.049622 
	C525.982666,764.222839 525.990417,764.222778 525.999023,757.417725 
	C526.007690,750.593323 525.911499,743.767334 526.036560,736.945251 
	C526.093994,733.808899 525.803650,731.748535 521.738525,732.873718 
	C520.078796,733.333130 518.128540,732.742432 515.962524,732.418579 
z"/>
<path fill="#5A4A3B" opacity="1.000000" stroke="none" 
	d="
M613.938110,760.907959 
	C610.645264,772.027527 600.332825,779.129395 589.779663,777.938721 
	C577.669128,776.572388 569.646912,768.553772 567.889038,757.032288 
	C566.938660,750.803101 567.732910,744.867004 569.066467,738.948792 
	C571.119263,729.838989 580.839294,720.902649 588.785034,721.103333 
	C601.018311,721.412170 611.093018,728.177795 613.906616,741.576233 
	C615.641846,749.839600 613.799133,751.974854 605.289490,751.995728 
	C598.290955,752.012939 591.290588,751.911316 584.294556,752.047180 
	C579.167969,752.146729 577.899292,754.050171 580.135071,758.642700 
	C581.908875,762.286194 584.666382,765.303955 588.988281,765.910828 
	C594.181030,766.639954 598.564209,764.811218 601.617371,760.561890 
	C603.434692,758.032532 605.023621,755.775085 608.640076,755.964050 
	C611.746338,756.126282 613.799500,757.092651 613.938110,760.907959 
z"/>
<path fill="#5A4A3B" opacity="1.000000" stroke="none" 
	d="
M323.999939,752.000122 
	C283.546570,752.000122 243.593201,752.001282 203.639816,751.995361 
	C201.976318,751.995117 200.291687,752.081299 198.654465,751.855164 
	C196.388275,751.542236 195.200180,750.058228 195.058624,747.769714 
	C194.929993,745.690796 195.084274,743.880920 197.421783,742.818726 
	C199.035736,742.085327 200.622086,742.014465 202.270706,742.014099 
	C248.716507,742.004211 295.162323,742.003113 341.608124,742.019958 
	C342.929108,742.020447 344.310333,742.025146 345.558350,742.388794 
	C348.108276,743.131836 349.296204,744.868347 348.977112,747.652039 
	C348.659393,750.423889 347.236359,751.918701 344.476013,751.944458 
	C337.817719,752.006531 331.158691,751.986877 323.999939,752.000122 
z"/>
<path fill="#5A4A3B" opacity="1.000000" stroke="none" 
	d="
M664.129517,742.000977 
	C709.748596,742.001831 754.887207,742.016357 800.025818,741.979126 
	C803.884277,741.975952 807.189697,742.318054 806.967041,747.402100 
	C806.846558,750.155151 805.514709,751.737671 802.719055,751.940979 
	C801.723999,752.013306 800.721436,751.996277 799.722290,751.996338 
	C753.251160,751.998718 706.780090,752.004822 660.308960,751.974365 
	C658.528503,751.973206 656.522461,752.563904 655.026550,751.203247 
	C653.643127,749.944702 652.686523,748.210938 653.202026,746.296021 
	C653.793457,744.099304 655.325806,742.465210 657.662170,742.145325 
	C659.627563,741.876160 661.651184,742.032898 664.129517,742.000977 
z"/>
<path fill="#5A4A3B" opacity="1.000000" stroke="none" 
	d="
M316.949036,561.582214 
	C325.911316,560.391479 333.225006,567.179016 331.860870,574.891418 
	C330.900940,580.318420 324.302917,584.889221 318.943665,583.839905 
	C313.393829,582.753235 308.978851,576.132385 310.159119,570.292236 
	C310.921448,566.520142 312.158508,562.878845 316.949036,561.582214 
z"/>
<path fill="#5A4A3B" opacity="1.000000" stroke="none" 
	d="
M589.700745,714.691101 
	C586.667053,716.146423 584.004822,717.552917 581.003418,717.922180 
	C578.760437,718.197998 576.801086,717.939270 575.690796,715.369263 
	C574.598816,712.841797 575.515259,711.158752 577.441162,709.864441 
	C582.795410,706.265930 588.080627,702.521606 593.690002,699.362183 
	C596.973999,697.512512 600.751648,697.014099 603.085022,701.369385 
	C605.040955,705.020142 604.034607,707.734863 599.502014,710.143127 
	C596.439880,711.770081 593.199768,713.062012 589.700745,714.691101 
z"/>
<path fill="#000000" opacity="1.000000" stroke="none" 
	d="
M647.751953,327.896698 
	C651.043701,326.622070 654.046326,325.887848 657.453125,325.409668 
	C655.930237,342.190216 650.006775,357.370270 644.200623,372.645996 
	C636.878784,391.909698 626.403320,409.275024 613.283264,425.002197 
	C599.915283,441.026520 584.038025,454.185486 565.879028,464.612152 
	C546.531799,475.721100 525.784546,482.852600 503.778778,485.714355 
	C485.141571,488.138062 466.427551,487.767822 447.762787,484.506927 
	C430.490082,481.489227 414.022156,476.136383 398.361145,468.514465 
	C385.551514,462.280243 373.661255,454.428864 362.688904,445.226593 
	C347.164520,432.206604 334.230957,417.022888 324.061096,399.525085 
	C312.970398,380.442993 305.253479,360.105316 302.043213,338.185730 
	C301.613190,335.249481 300.912415,332.367310 300.876129,329.328522 
	C300.843964,326.634552 300.666626,325.485718 304.103668,326.451263 
	C325.009491,332.324158 346.456879,335.499390 367.975098,337.779938 
	C382.779205,339.348907 397.689850,340.188446 412.564728,341.200470 
	C443.976776,343.337555 475.401855,343.299072 506.818054,342.830261 
	C524.692139,342.563538 542.618042,342.058228 560.447937,340.102051 
	C563.275085,339.791901 564.251404,338.413513 564.752319,336.271851 
	C569.871582,314.383331 574.931580,292.480896 579.993164,270.578888 
	C582.709778,258.823914 585.343140,247.049240 588.150513,235.316116 
	C588.624939,233.333328 589.292725,230.502350 592.217651,231.397705 
	C595.036804,232.260712 593.469116,234.664581 593.053406,236.492645 
	C591.185059,244.708328 589.454590,252.960022 587.356018,261.116821 
	C586.238037,265.461975 587.959412,266.644379 591.934509,267.050842 
	C602.614746,268.142822 613.264893,269.530884 623.923706,270.828400 
	C626.752136,271.172760 628.504211,270.738892 629.116211,267.245758 
	C630.426514,259.766602 632.419739,252.409546 633.904297,244.956879 
	C634.322388,242.858429 634.713440,240.365707 636.944519,240.562302 
	C640.057068,240.836548 639.196045,243.997665 638.857117,245.826279 
	C637.593079,252.646408 635.932983,259.392975 634.430298,266.169098 
	C629.779053,287.143646 625.179810,308.129944 620.446777,329.085999 
	C619.356812,333.912079 622.575928,333.230347 625.061279,332.754578 
	C632.523071,331.326263 639.924377,329.581665 647.751953,327.896698 
z"/>
<path fill="#000000" opacity="1.000000" stroke="none" 
	d="
M675.334229,404.344788 
	C666.954163,410.100189 657.833801,412.522919 648.033569,413.923523 
	C648.821167,409.789368 651.435974,407.093140 653.083984,403.921814 
	C660.355896,389.928345 666.237000,375.370148 670.976501,360.352295 
	C671.959229,357.238220 673.314270,355.755432 676.864197,355.916321 
	C683.675659,356.225006 690.510803,356.055359 697.335449,356.001282 
	C699.737732,355.982239 701.318726,356.672546 700.888123,359.402802 
	C698.605286,373.876831 694.059631,387.327179 683.461731,398.077057 
	C681.109253,400.463257 678.549377,402.510223 675.334229,404.344788 
z"/>
<path fill="#000000" opacity="1.000000" stroke="none" 
	d="
M401.769897,641.678406 
	C392.611725,650.855713 382.812347,648.637207 377.813721,636.784485 
	C374.005585,627.754639 373.925079,618.774536 377.698090,609.855652 
	C379.810303,604.862671 382.860046,600.445496 389.048950,600.036865 
	C395.643890,599.601379 400.171387,603.155518 403.093597,608.513428 
	C409.132233,619.585632 408.690063,630.652344 401.769897,641.678406 
z"/>
<path fill="#000000" opacity="1.000000" stroke="none" 
	d="
M586.299622,634.546753 
	C576.802002,615.369995 580.597351,589.098999 594.519592,576.025085 
	C599.812561,571.054626 604.252014,570.956909 610.560547,574.759338 
	C621.796509,581.531738 625.378113,592.433655 626.928162,604.361267 
	C628.460876,616.155701 624.989990,626.974426 619.355469,637.183655 
	C616.593262,642.188599 612.346436,644.391602 606.526062,645.160889 
	C597.127930,646.403076 590.980347,642.554260 586.299622,634.546753 
z"/>
<path fill="#000000" opacity="1.000000" stroke="none" 
	d="
M470.569641,604.270752 
	C477.611664,601.883911 484.078644,601.912903 490.316345,605.666077 
	C491.654205,606.471069 492.607147,607.374329 493.347931,608.746521 
	C496.114960,613.871826 495.519165,614.960144 489.621246,614.985596 
	C482.166901,615.017761 474.711670,615.044067 467.257965,614.966370 
	C462.940399,614.921387 461.968201,613.143066 464.304596,609.550842 
	C465.757019,607.317810 467.695770,605.500122 470.569641,604.270752 
z"/>
<path fill="#000000" opacity="1.000000" stroke="none" 
	d="
M457.378845,759.418945 
	C458.527771,755.846863 460.837402,754.381897 464.077087,754.032043 
	C467.994995,753.608948 471.963409,753.365845 475.794403,752.520874 
	C478.629150,751.895569 479.105469,752.980286 478.777161,755.242920 
	C477.714905,762.563782 465.610718,768.376831 459.376160,764.490112 
	C457.790558,763.501526 457.049164,761.752991 457.378845,759.418945 
z"/>
<path fill="#000000" opacity="1.000000" stroke="none" 
	d="
M581.865356,741.869995 
	C580.273499,738.989014 581.957825,735.971863 585.976929,734.642090 
	C590.191589,733.247375 594.536560,733.598938 598.554810,735.451233 
	C600.570129,736.380310 602.058350,738.480103 601.558167,740.702820 
	C601.092468,742.771912 598.754761,741.926819 597.229553,741.954041 
	C592.246582,742.042847 587.260498,741.951599 581.865356,741.869995 
z"/>
<path fill="#5A4A3B" opacity="1.000000" stroke="none" 
	d="
M617.942383,274.998657 
	C626.869690,275.880432 626.889160,275.884613 625.144653,284.004730 
	C623.514465,291.593140 621.621277,299.133453 620.277527,306.771271 
	C619.670105,310.224182 618.075317,311.334351 614.916931,310.970673 
	C603.261292,309.628510 591.606262,308.281464 579.952454,306.923889 
	C577.642456,306.654755 576.889465,305.458191 577.442749,303.124847 
	C579.729736,293.478790 581.869568,283.797729 584.172791,274.155640 
	C584.599609,272.368622 585.342773,271.040985 587.981812,271.414825 
	C597.793030,272.804596 607.655823,273.830444 617.942383,274.998657 
z"/>
<path fill="#5A4A3B" opacity="1.000000" stroke="none" 
	d="
M602.091492,336.015472 
	C592.337036,337.492920 582.985657,338.479706 573.578796,339.038696 
	C570.162109,339.241730 569.529846,337.644226 570.173401,334.863129 
	C571.733215,328.121521 573.425781,321.409454 574.889709,314.647583 
	C575.294312,312.778503 575.599426,311.624298 577.959961,311.899445 
	C590.585510,313.371063 603.226562,314.709015 615.861816,316.097260 
	C617.629700,316.291473 617.918762,317.237579 617.541748,318.884705 
	C616.547485,323.227600 615.791626,327.625244 614.787537,331.965668 
	C614.456177,333.398041 613.767883,334.757019 611.891052,334.933777 
	C608.768555,335.227844 605.657410,335.642334 602.091492,336.015472 
z"/>
<path fill="#000000" opacity="1.000000" stroke="none" 
	d="
M595.518311,284.903870 
	C594.630127,284.681000 594.149292,284.536682 593.706421,284.316132 
	C592.409973,283.670563 589.850403,284.456787 590.331360,281.750122 
	C590.766785,279.299561 592.677856,278.753510 594.891113,279.059570 
	C601.921265,280.031830 608.947998,281.029877 615.977295,282.008789 
	C617.246948,282.185638 619.029236,281.926666 618.705505,283.937134 
	C618.459778,285.463196 618.071106,287.299072 615.661316,287.017822 
	C611.719604,286.557770 607.685181,286.556671 603.844360,285.682922 
	C601.179810,285.076721 598.573853,285.175537 595.518311,284.903870 
z"/>
</svg>