<?xml version="1.0" standalone="no"?>
<!DOCTYPE svg PUBLIC "-//W3C//DTD SVG 20010904//EN"
 "http://www.w3.org/TR/2001/REC-SVG-20010904/DTD/svg10.dtd">
<svg version="1.0" xmlns="http://www.w3.org/2000/svg"
 width="512.000000pt" height="512.000000pt" viewBox="0 0 512.000000 512.000000"
 preserveAspectRatio="xMidYMid meet">

<g transform="translate(0.000000,512.000000) scale(0.100000,-0.100000)"
fill="#000000" stroke="none">
<path d="M572 5109 c-279 -47 -519 -292 -562 -575 -7 -47 -10 -687 -8 -2019
l3 -1950 28 -80 c79 -223 229 -373 452 -452 l80 -28 1995 0 1995 0 80 28 c231
82 390 248 462 482 17 57 18 148 18 2050 l0 1990 -28 80 c-79 223 -229 373
-452 452 l-80 28 -1965 1 c-1109 1 -1988 -2 -2018 -7z m1858 -962 c64 -22 66
-32 94 -452 56 -840 58 -882 46 -940 -15 -71 -62 -125 -109 -125 -42 0 -102
31 -134 70 -26 30 -677 1068 -704 1123 -18 35 -4 83 35 119 72 69 340 165 562
203 95 16 166 17 210 2z m984 -968 c123 -90 314 -393 323 -514 6 -78 -17 -106
-108 -133 -165 -48 -666 -172 -699 -172 -73 0 -140 70 -140 146 0 38 17 65
196 315 108 151 213 295 233 321 64 84 117 94 195 37z m-1629 -604 c355 -144
443 -181 469 -198 33 -22 60 -96 52 -141 -14 -74 -37 -88 -284 -170 -380 -126
-524 -168 -552 -161 -81 20 -105 98 -104 340 1 190 15 292 52 364 22 42 76 74
112 65 14 -3 129 -48 255 -99z m1536 -601 c189 -64 360 -124 380 -134 44 -23
64 -66 56 -117 -15 -88 -126 -261 -256 -397 -114 -119 -187 -151 -244 -106
-51 40 -427 656 -434 712 -10 70 64 157 133 158 12 0 176 -52 365 -116z m-820
-57 c65 -43 69 -62 69 -347 0 -140 -3 -320 -7 -399 -6 -137 -8 -146 -32 -174
-50 -55 -169 -45 -376 33 -188 70 -284 130 -311 196 -25 60 -20 67 283 433
112 135 216 254 231 263 38 25 102 23 143 -5z"/>
</g>
</svg>
